<svg xmlns="http://www.w3.org/2000/svg" width="209.954" height="29.954" viewBox="0 0 209.954 29.954">
  <g id="Group_4" data-name="Group 4" transform="translate(0 0)">
    <g id="Group_2" data-name="Group 2" transform="translate(33.84 4.31)">
      <g id="Group_1" data-name="Group 1" transform="translate(0 0.371)">
        <path id="Path_1" data-name="Path 1" d="M152.229,502.538l1.658-.994q1.75,3.221,4.044,3.221a3.862,3.862,0,0,0,1.843-.458,3.231,3.231,0,0,0,1.313-1.226,3.172,3.172,0,0,0,.451-1.63,3.3,3.3,0,0,0-.663-1.922,15.883,15.883,0,0,0-3.341-3.13,17.048,17.048,0,0,1-3.036-2.665,4.869,4.869,0,0,1-1.035-2.984,4.524,4.524,0,0,1,.61-2.32,4.34,4.34,0,0,1,1.717-1.65,4.951,4.951,0,0,1,2.406-.6,5.125,5.125,0,0,1,2.579.683,8.839,8.839,0,0,1,2.539,2.513l-1.591,1.206a7.63,7.63,0,0,0-1.876-1.922,3.232,3.232,0,0,0-1.691-.463,2.674,2.674,0,0,0-1.929.715,2.341,2.341,0,0,0-.749,1.763,3,3,0,0,0,.265,1.233,4.525,4.525,0,0,0,.967,1.3q.385.369,2.52,1.948a14.2,14.2,0,0,1,3.474,3.329,5.363,5.363,0,0,1,.942,2.93,4.972,4.972,0,0,1-1.611,3.686,5.409,5.409,0,0,1-3.918,1.564,5.751,5.751,0,0,1-3.222-.947A8.677,8.677,0,0,1,152.229,502.538Z" transform="translate(-152.229 -486.176)" fill="#007ac2"/>
        <path id="Path_2" data-name="Path 2" d="M197.645,486.176H199.5v8.154a7.911,7.911,0,0,1,2.48-2.22,6.026,6.026,0,0,1,2.93-.736,5.114,5.114,0,0,1,2.871.823,4.9,4.9,0,0,1,1.849,2.208,11.691,11.691,0,0,1,.6,4.341v7.425h-1.856v-6.88a17.592,17.592,0,0,0-.2-3.328,3.781,3.781,0,0,0-1.253-2.156,3.709,3.709,0,0,0-2.38-.722,4.579,4.579,0,0,0-3.017,1.115,5.214,5.214,0,0,0-1.757,2.757,19.057,19.057,0,0,0-.265,3.924v5.29h-1.856Z" transform="translate(-182.411 -486.176)" fill="#007ac2"/>
        <path id="Path_3" data-name="Path 3" d="M260.1,502.043v14.425h-1.83v-2.479a7.972,7.972,0,0,1-2.618,2.134,7.316,7.316,0,0,1-8.407-1.5,7.452,7.452,0,0,1-2.167-5.4,7.313,7.313,0,0,1,2.187-5.331,7.133,7.133,0,0,1,5.264-2.214,6.815,6.815,0,0,1,3.216.756,7.319,7.319,0,0,1,2.526,2.267v-2.652Zm-7.419,1.419a5.6,5.6,0,0,0-4.947,2.9,5.846,5.846,0,0,0,.007,5.828,5.7,5.7,0,0,0,2.1,2.166,5.48,5.48,0,0,0,2.828.774,5.786,5.786,0,0,0,2.887-.769,5.348,5.348,0,0,0,2.1-2.078,5.929,5.929,0,0,0,.736-2.954,5.74,5.74,0,0,0-1.649-4.185A5.461,5.461,0,0,0,252.683,503.462Z" transform="translate(-213.933 -496.474)" fill="#007ac2"/>
        <path id="Path_4" data-name="Path 4" d="M300.219,502.043h1.9v2.108a6.663,6.663,0,0,1,1.789-1.861,3.531,3.531,0,0,1,1.963-.617,3.386,3.386,0,0,1,1.645.491l-.968,1.563a2.611,2.611,0,0,0-.981-.252,2.687,2.687,0,0,0-1.79.763,4.813,4.813,0,0,0-1.313,2.367,22.719,22.719,0,0,0-.344,4.986v4.878h-1.9Z" transform="translate(-250.577 -496.474)" fill="#007ac2"/>
        <path id="Path_5" data-name="Path 5" d="M326.741,502.043H328.6v2.652a7.456,7.456,0,0,1,2.53-2.267,6.73,6.73,0,0,1,3.192-.756,7.122,7.122,0,0,1,5.258,2.214,7.317,7.317,0,0,1,2.186,5.331,7.453,7.453,0,0,1-2.166,5.4,7.292,7.292,0,0,1-8.391,1.5,7.986,7.986,0,0,1-2.609-2.134v7.757h-1.856Zm7.425,1.419a5.452,5.452,0,0,0-4.055,1.682,5.745,5.745,0,0,0-1.647,4.185,5.946,5.946,0,0,0,.734,2.954,5.338,5.338,0,0,0,2.1,2.078,5.809,5.809,0,0,0,2.891.769,5.445,5.445,0,0,0,2.811-.774,5.7,5.7,0,0,0,2.1-2.166,5.853,5.853,0,0,0,.007-5.828,5.589,5.589,0,0,0-4.941-2.9Z" transform="translate(-268.202 -496.474)" fill="#007ac2"/>
      </g>
      <path id="Path_6" data-name="Path 6" d="M383.762,487.638h1.949v19.5h-1.949Z" transform="translate(-306.096 -486.777)" fill="#363637"/>
      <path id="Path_7" data-name="Path 7" d="M401.982,502.043h1.857v2.585a7.762,7.762,0,0,1,2.466-2.22,6.052,6.052,0,0,1,2.943-.736,5.11,5.11,0,0,1,2.87.823,4.9,4.9,0,0,1,1.85,2.213,11.7,11.7,0,0,1,.6,4.336v7.425h-1.856v-6.88a16.785,16.785,0,0,0-.208-3.328,3.657,3.657,0,0,0-1.237-2.156,3.738,3.738,0,0,0-2.387-.722,4.582,4.582,0,0,0-3.017,1.115,5.214,5.214,0,0,0-1.756,2.757,19.122,19.122,0,0,0-.265,3.924v5.29h-1.857Z" transform="translate(-318.204 -496.103)" fill="#363637"/>
      <path id="Path_8" data-name="Path 8" d="M455.9,503.62l-1.193,1.234a4.29,4.29,0,0,0-2.912-1.445,2.195,2.195,0,0,0-1.548.6,1.84,1.84,0,0,0-.645,1.391,2.064,2.064,0,0,0,.53,1.34,7.5,7.5,0,0,0,2.234,1.525,8.322,8.322,0,0,1,2.817,2.069,3.762,3.762,0,0,1,.73,2.267,4.067,4.067,0,0,1-1.248,3.01,4.261,4.261,0,0,1-3.121,1.233,5.449,5.449,0,0,1-2.384-.544,5.162,5.162,0,0,1-1.878-1.5l1.167-1.326a4.056,4.056,0,0,0,3.017,1.606,2.719,2.719,0,0,0,1.9-.717,2.214,2.214,0,0,0,.783-1.683,2.151,2.151,0,0,0-.518-1.419,8.28,8.28,0,0,0-2.337-1.539,7.428,7.428,0,0,1-2.658-1.99,3.733,3.733,0,0,1-.706-2.239,3.645,3.645,0,0,1,1.122-2.732,3.907,3.907,0,0,1,2.836-1.088A5.886,5.886,0,0,1,455.9,503.62Z" transform="translate(-348.31 -496.103)" fill="#363637"/>
      <path id="Path_9" data-name="Path 9" d="M482.585,486.81h1.856v5.356h2.945v1.6h-2.945v12.822h-1.856V493.77h-2.532v-1.6h2.532Z" transform="translate(-370.087 -486.226)" fill="#363637"/>
      <path id="Path_10" data-name="Path 10" d="M509.12,485.07a1.532,1.532,0,0,1,0,3.064,1.537,1.537,0,0,1-1.517-1.527,1.484,1.484,0,0,1,.448-1.087A1.457,1.457,0,0,1,509.12,485.07Zm-.92,5.94h1.856v14.425H508.2Z" transform="translate(-388.395 -485.07)" fill="#363637"/>
      <path id="Path_11" data-name="Path 11" d="M526.414,502.043h1.856v2.585a7.779,7.779,0,0,1,2.467-2.22,6.053,6.053,0,0,1,2.943-.736,5.118,5.118,0,0,1,2.871.823,4.9,4.9,0,0,1,1.85,2.213,11.7,11.7,0,0,1,.6,4.336v7.425h-1.856v-6.88a16.824,16.824,0,0,0-.207-3.328A3.662,3.662,0,0,0,535.7,504.1a3.734,3.734,0,0,0-2.387-.722,4.582,4.582,0,0,0-3.017,1.115,5.2,5.2,0,0,0-1.756,2.757,19.067,19.067,0,0,0-.267,3.924v5.29h-1.856Z" transform="translate(-400.896 -496.103)" fill="#363637"/>
      <path id="Path_12" data-name="Path 12" d="M588.445,505.039l-1.473.915a6.167,6.167,0,0,0-5.2-2.532,6.025,6.025,0,0,0-4.378,1.695,5.531,5.531,0,0,0-1.741,4.118,5.844,5.844,0,0,0,.8,2.967,5.6,5.6,0,0,0,2.2,2.158,6.647,6.647,0,0,0,8.323-1.763l1.473.966a6.963,6.963,0,0,1-2.778,2.417,8.88,8.88,0,0,1-3.971.859,7.855,7.855,0,0,1-5.677-2.174,7.076,7.076,0,0,1-2.253-5.291,7.546,7.546,0,0,1,1.055-3.891,7.414,7.414,0,0,1,2.9-2.8,8.445,8.445,0,0,1,4.123-1.008,8.792,8.792,0,0,1,2.765.437,7.686,7.686,0,0,1,2.262,1.141A6.231,6.231,0,0,1,588.445,505.039Z" transform="translate(-432.365 -496.103)" fill="#363637"/>
      <path id="Path_13" data-name="Path 13" d="M627.964,486.81h1.856v5.356h2.945v1.6H629.82v12.822h-1.856V493.77h-2.531v-1.6h2.531Z" transform="translate(-466.7 -486.226)" fill="#363637"/>
      <path id="Path_14" data-name="Path 14" d="M660.138,503.62l-1.193,1.234a4.288,4.288,0,0,0-2.911-1.445,2.2,2.2,0,0,0-1.548.6,1.84,1.84,0,0,0-.644,1.391,2.065,2.065,0,0,0,.529,1.34,7.5,7.5,0,0,0,2.234,1.525,8.321,8.321,0,0,1,2.817,2.069,3.76,3.76,0,0,1,.73,2.267,4.067,4.067,0,0,1-1.248,3.01,4.261,4.261,0,0,1-3.12,1.233,5.451,5.451,0,0,1-2.384-.544,5.158,5.158,0,0,1-1.878-1.5l1.167-1.326a4.055,4.055,0,0,0,3.017,1.606,2.719,2.719,0,0,0,1.9-.717,2.212,2.212,0,0,0,.784-1.683,2.152,2.152,0,0,0-.519-1.419,8.279,8.279,0,0,0-2.337-1.539,7.438,7.438,0,0,1-2.658-1.99,3.738,3.738,0,0,1-.706-2.239,3.645,3.645,0,0,1,1.122-2.732,3.908,3.908,0,0,1,2.836-1.088A5.885,5.885,0,0,1,660.138,503.62Z" transform="translate(-484.037 -496.103)" fill="#363637"/>
    </g>
    <g id="Group_3" data-name="Group 3">
      <path id="Path_15" data-name="Path 15" d="M75.235,485.32H70.978v7.613a31.457,31.457,0,0,0-7.486-4.751l.009.016c-.685-.419-1.434-.842-2.259-1.27a16.652,16.652,0,0,1-4.982-3.4,4.688,4.688,0,0,1-1.174-2.727,5.469,5.469,0,0,1,.555-3c1.446-3.024,6.107-4.315,13.3-1.409q-4.409-4.168-8.761-4.172a8.725,8.725,0,0,0-6.328,2.427,8.13,8.13,0,0,0-2.5,6.1,8.36,8.36,0,0,0,1.57,5,12.328,12.328,0,0,0,3.3,2.917c2.595,1.864,9.32,4.949,10.535,8.6-1.57.313-13.555,3.205-14.852-5.41-2.227,7.01,6.541,11.553,18.505,7.614l-.012-.017a22.593,22.593,0,0,0,4.845-2.118Z" transform="translate(-51.346 -472.221)" fill="#363637"/>
      <path id="Path_16" data-name="Path 16" d="M111.888,488.725a3.218,3.218,0,1,1-3.2-3.237A3.219,3.219,0,0,1,111.888,488.725Z" transform="translate(-87.302 -481.038)" fill="#009ddd"/>
    </g>
  </g>
</svg>
